<svg width="44" height="22" viewBox="0 0 44 22" fill="none" xmlns="http://www.w3.org/2000/svg">
<path d="M36.9436 5.67054V13.9455C36.9436 14.5071 36.4796 14.9627 35.9078 14.9627H35.1741C34.6022 14.9627 34.1383 14.5071 34.1383 13.9455V3.51968C32.0127 2.13169 29.6282 1.09334 27.0711 0.5V14.8567C27.0711 15.4183 26.6071 15.8739 26.0353 15.8739H17.9431C17.3712 15.8739 16.9073 15.4183 16.9073 14.8567V0.5C14.3825 1.09334 11.998 2.14228 9.87248 3.51968V13.9455C9.87248 14.5071 9.40853 14.9627 8.83668 14.9627H8.10299C7.53114 14.9627 7.06718 14.5071 7.06718 13.9455V5.67054C2.72977 9.612 0 15.2381 0 21.5H44C44.0108 15.2381 41.2918 9.612 36.9436 5.67054Z" fill="#FFB342"/>
</svg>
